<svg width="256" height="256" xmlns="http://www.w3.org/2000/svg">

 <g>
  <title>Layer 1</title>
  <path id="svg_1" d="m127.88745,76a32,32 0 1 0 -32,-32a32.03635,32.03635 0 0 0 32,32zm0,-56a24,24 0 1 1 -24,24a24.02718,24.02718 0 0 1 24,-24zm80.75586,122.13086l-39.45606,-50.72852a3.9765,3.9765 0 0 0 -0.3291,-0.373a23.84373,23.84373 0 0 0 -16.9707,-7.02934l-48,0a23.84373,23.84373 0 0 0 -16.9707,7.0293a3.978,3.978 0 0 0 -0.32911,0.373l-39.456,50.72852a16.00034,16.00034 0 0 0 22.625,22.62451l24.41206,-18.98775l-23.77832,75.104a16.00011,16.00011 0 0 0 28.998,13.521l28.499,-44.85352l28.499,44.85352a16.0001,16.0001 0 0 0 28.99805,-13.521l-23.77832,-75.104l24.41211,18.98779a16.00035,16.00035 0 0 0 22.625,-22.62451l0.00009,0zm-5.84375,16.78076a8.01008,8.01008 0 0 1 -11.31446,0a3.95847,3.95847 0 0 0 -0.37207,-0.32861l-34.74609,-27.02539a4.00018,4.00018 0 0 0 -6.26953,4.36474l27.7334,87.59424a4.08571,4.08571 0 0 0 0.18847,0.48291a8.00043,8.00043 0 0 1 -14.502,6.76172a4.02218,4.02218 0 0 0 -0.249,-0.45459l-32.00489,-50.37109a3.99955,3.99955 0 0 0 -6.75195,0l-32.00485,50.37109a4.02218,4.02218 0 0 0 -0.249,0.45459a8.00043,8.00043 0 0 1 -14.502,-6.76172a4.0875,4.0875 0 0 0 0.18848,-0.48291l27.7334,-87.59424a4.00018,4.00018 0 0 0 -6.26953,-4.36474l-34.74608,27.02538a3.95973,3.95973 0 0 0 -0.37207,0.32861a8.00018,8.00018 0 0 1 -11.31445,-11.31348a4.03813,4.03813 0 0 0 0.3291,-0.373l39.43656,-50.70413a15.89129,15.89129 0 0 1 11.14645,-4.521l48,0a15.89125,15.89125 0 0 1 11.14648,4.521l39.43653,50.7041a4.03813,4.03813 0 0 0 0.3291,0.373a8.00063,8.00063 0 0 1 0,11.31348l0,0.00004z"/>
  <ellipse stroke="null" ry="29" rx="25.5" id="svg_2" cy="45.5" cx="127.5" fill="#000"/>
  <path transform="translate(718,320.5)" id="svg_4" d="m130,93.5l-35,-4.5l-42,57l77,-52.5z" opacity="NaN" stroke="null" fill="#000"/>
  <path id="svg_7" d="m128,91.5l-33,-0.5l-50,62l13,12l68,-52" opacity="NaN" stroke="null" fill="#000"/>
  <path id="svg_8" d="m125,88.5l34,0.5l47,54l1,20l-13,2l-37,-29l-30,-23l1,68" opacity="NaN" stroke="null" fill="#000"/>
  <path id="svg_9" d="m104,137.5l-18,47.5l-12,39l5,17l11,-4l37,-54l-1,-65l-13,7" opacity="NaN" stroke="null" fill="#000"/>
  <path id="svg_10" d="m127,113.5l27,18.5l14,58l14,32l-6,17l-17,-7l-31,-48l-31,-65l53,-15" opacity="NaN" stroke="null" fill="#000"/>
  <rect id="svg_11" height="27" width="52" y="105.5" x="102" stroke="null" fill="#000"/>
 </g>
</svg>